<svg width="20" height="20" viewBox="0 0 20 20" fill="none" xmlns="http://www.w3.org/2000/svg">
<path d="M16.8491 5.52433H8.73651C7.49046 5.52433 7.31561 3.2335 7.0559 2.37056C6.9302 1.95288 6.54675 1.66666 6.1126 1.66666H2.65209C1.29638 1.66666 1.21737 4.49392 2.65209 4.49392C3.41368 4.49392 4.67532 4.23949 4.96333 5.19888L7.00203 12.0142C7.32949 13.1051 8.41328 13.774 9.52875 13.5598C12.0578 13.0788 14.6383 12.4759 16.9547 11.323C17.6677 10.969 18.1494 10.2799 18.2455 9.48696C18.3545 8.57649 18.3561 7.6656 18.2466 6.7551C18.1621 6.04802 17.5579 5.52433 16.8491 5.52433Z" fill="#0073E6"/>
<path d="M6.33147 16.5672C6.33147 17.5425 7.12054 18.3333 8.09236 18.3333C9.06417 18.3333 9.85326 17.5425 9.85326 16.5672C9.85326 15.5909 9.06417 14.8 8.09236 14.8C7.12054 14.8 6.33147 15.5909 6.33147 16.5672Z" fill="#0073E6"/>
<path d="M15.3107 18.3333C14.3389 18.3333 13.5499 17.5425 13.5499 16.5672C13.5499 15.5909 14.3389 14.8 15.3107 14.8C16.2826 14.8 17.0716 15.5909 17.0716 16.5672C17.0716 17.5425 16.2826 18.3333 15.3107 18.3333Z" fill="#0073E6"/>
</svg>
