<svg width="20" height="20" viewBox="0 0 20 20" fill="none" xmlns="http://www.w3.org/2000/svg">
<path fill-rule="evenodd" clip-rule="evenodd" d="M13.3335 2.91666C13.3335 2.07962 12.8628 1.66666 12.0835 1.66666H7.91687C7.13756 1.66666 6.66687 2.07962 6.66687 2.91666C6.66687 3.75369 7.13756 4.16666 7.91687 4.16666L12.0835 4.16666C12.8628 4.16666 13.3335 3.75369 13.3335 2.91666ZM1.66748 6.45832C1.66748 5.37787 2.12306 4.99999 3.12581 4.99999H16.8758C17.8786 4.99999 18.3341 5.37787 18.3341 6.45832C18.3341 7.8335 17.3462 7.91666 16.2502 7.91666V14.3333C16.2502 16.5425 14.4593 18.3333 12.2502 18.3333H7.7502C5.54106 18.3333 3.7502 16.5425 3.7502 14.3333V7.91666C2.65451 7.91666 1.66748 7.83283 1.66748 6.45832ZM10.7502 8.66667C10.7502 8.25245 10.4144 7.91667 10.0002 7.91667C9.58599 7.91667 9.2502 8.25245 9.2502 8.66667L9.2502 14.6667C9.2502 15.0809 9.58599 15.4167 10.0002 15.4167C10.4144 15.4167 10.7502 15.0809 10.7502 14.6667V8.66667ZM6.30404 7.92182C6.71769 7.90014 7.07059 8.21789 7.09227 8.63154L7.40628 14.6233C7.42796 15.037 7.11021 15.3899 6.69656 15.4115C6.28292 15.4332 5.93002 15.1155 5.90834 14.7018L5.59432 8.71004C5.57264 8.2964 5.8904 7.94349 6.30404 7.92182ZM14.4062 8.71003C14.4279 8.29638 14.1101 7.94348 13.6965 7.92181C13.2828 7.90013 12.9299 8.21788 12.9082 8.63153L12.5942 14.6233C12.5725 15.0369 12.8903 15.3898 13.3039 15.4115C13.7176 15.4332 14.0705 15.1155 14.0922 14.7018L14.4062 8.71003Z" fill="#0073E6"/>
</svg>
