<svg width="20" height="20" viewBox="0 0 20 20" fill="none" xmlns="http://www.w3.org/2000/svg">
<path fill-rule="evenodd" clip-rule="evenodd" d="M17.8584 8.78567C17.3154 7.56236 16.2479 6.70873 14.9864 6.30915C13.8812 5.96519 12.8218 5.96196 11.9551 5.94906C10.6634 5.92434 6.7268 5.88672 6.7268 5.88672L8.5529 4.16476C9.66789 3.03664 7.80932 1.05244 6.57263 1.87527C6.09554 2.19343 5.26322 2.84158 3.96423 4.13789C3.04337 5.05584 2.41731 5.82008 2.00792 6.37794C1.5527 6.99922 1.5527 7.8387 2.00792 8.45998C2.41731 9.01892 3.04337 9.78101 3.96423 10.699C5.26322 11.9963 6.09554 12.6445 6.57263 12.9627C7.80161 13.7838 9.66687 11.8002 8.5529 10.6732L6.71951 9.14253C6.79764 9.14146 10.5123 9.11029 11.9551 9.08234C12.6854 9.07027 13.4361 9.0418 14.1478 9.23605C14.7333 9.41125 15.0312 9.63483 15.2437 10.053C15.7024 11.0234 15.7083 12.5589 14.8645 13.341C14.4937 13.6775 13.853 13.915 13.1072 14.0257C12.8145 14.0719 11.8488 14.1418 11.9655 15.4252C12.0832 16.7151 13.0239 16.6968 13.4291 16.6527C14.4124 16.5388 15.5364 16.2905 16.5531 15.4929C17.5531 14.6865 18.0967 13.4976 18.2667 12.2436C18.4201 11.0856 18.3305 9.86396 17.8584 8.78567Z" fill="#0073E6"/>
</svg>
